<svg xmlns="http://www.w3.org/2000/svg" viewBox="0 0 510.71 299.41"><defs><style>.cls-1,.cls-2{fill:#333;}.cls-2{font-size:91.52px;font-family:Arial-BoldMT, Arial;font-weight:700;}.cls-3{letter-spacing:-0.07em;}.cls-4{letter-spacing:-0.04em;}.cls-5{fill:#8b793a;}</style></defs><g id="Layer_2" data-name="Layer 2"><g id="Layer_1-2" data-name="Layer 1"><path class="cls-1" d="M0,147.09V11.37H65q20.81,0,32.49,9.79t11.68,27.19q0,11.16-5.49,18.54t-15.6,9.55q13.8,2.93,20.57,10.88t6.76,21.37q0,19-12.81,28.7t-37.79,9.7ZM45.77,43.62v19h6.44c3.9,0,6.9-.82,9-2.46a8.49,8.49,0,0,0,3.12-7.09,8.37,8.37,0,0,0-3.12-7c-2.08-1.6-5.08-2.41-9-2.41Zm0,48.24v21.65h8.14q7.38,0,11.3-2.83a10.15,10.15,0,0,0,0-16q-3.93-2.79-11.3-2.79Z"/><path class="cls-1" d="M164.85,105.1v42h-38.4V11.18h61.47q12.48,0,26.62,11.78t14.14,34q0,14.46-5.15,25.3T204.28,99.33L232,147Zm0,0,24.59,33.67q4,9,21.09,8.32L232,147Zm.94-58.92V72.75h9.55q7,0,10.74-3.4t3.73-9.74q0-6.44-3.73-9.93t-10.74-3.5Z"/><path class="cls-1" d="M378.4,79.56a69.91,69.91,0,0,1-5.16,27,67.19,67.19,0,0,1-15.08,22.31,69.39,69.39,0,0,1-22.84,14.81,76.61,76.61,0,0,1-55.23,0,68.22,68.22,0,0,1-22.85-15,64.07,64.07,0,0,1-14.89-22,71.31,71.31,0,0,1-5.06-27.1,72,72,0,0,1,5.06-27.19,63.85,63.85,0,0,1,14.89-22.08A66.9,66.9,0,0,1,280,15.44a78.07,78.07,0,0,1,55.56,0,69,69,0,0,1,22.89,14.85,65.76,65.76,0,0,1,14.85,22.18A71.15,71.15,0,0,1,378.4,79.56Zm-71,28.47q11.36,0,18.21-7.66T332.43,80q0-12.86-6.85-20.61t-18.21-7.76q-11.25,0-18.16,7.85T282.31,80q0,12.68,6.9,20.34T307.37,108Z"/><path class="cls-1" d="M388.61,147.09V11.37h39.53a160.37,160.37,0,0,1,24.55,2.08Q466,15.54,474.3,19.88q17.58,9.27,27,24.59t9.41,34.81q0,19.48-9.36,34.71T474.3,138.58q-8.61,4.44-21.85,6.47a183.87,183.87,0,0,1-28,2Zm42.75-41.43q21.18-.09,28.8-6.43t7.61-20q0-13.25-7.28-19.72t-27.05-6.48h-2.08Z"/><text class="cls-2" transform="translate(48.04 264.96)"><tspan class="cls-3">P</tspan><tspan x="54.25" y="0">ADARI</tspan><tspan class="cls-4" x="344.03" y="0">A</tspan></text><polygon class="cls-1" points="243.99 159.32 231.85 139.16 371.01 0 384.29 19.29 243.99 159.32"/><rect class="cls-5" x="46.71" y="171.54" width="417" height="13.87"/><rect class="cls-5" x="46.71" y="283.34" width="417" height="13.87"/></g></g></svg>